<svg viewBox="0 0 172 32" fill="none" xmlns="http://www.w3.org/2000/svg" class="sc-jSMfEi kHqPBp"><path d="M60.875 20.816v6.682l-20.351.02-.04-22.984h6.573v16.302l13.818-.02ZM86.515 20.796v6.681l-22.647.04-.04-23.003 22.628-.04v6.681l-16.055.02v1.49l16.075-.02v6.675l-16.075.02v1.49l16.114-.034ZM118.624 4.464l.02 23.004h-6.572v-9.721l-5.148 9.801h-5.78l-5.187-9.781v9.74h-6.553V4.505h7.008l7.622 14.414 7.582-14.43 7.008-.024ZM145.234 15.97a11.668 11.668 0 0 1-.855 4.403 11.508 11.508 0 0 1-2.449 3.735 11.294 11.294 0 0 1-3.67 2.497 11.143 11.143 0 0 1-4.33.876h-2.039a11.154 11.154 0 0 1-4.332-.864 11.291 11.291 0 0 1-3.677-2.483 11.502 11.502 0 0 1-2.462-3.725 11.666 11.666 0 0 1-.023-8.803 11.516 11.516 0 0 1 2.443-3.738 11.308 11.308 0 0 1 3.664-2.503 11.15 11.15 0 0 1 4.327-.887h2.059a11.141 11.141 0 0 1 4.337.864 11.3 11.3 0 0 1 3.681 2.488 11.509 11.509 0 0 1 2.46 3.733c.571 1.397.865 2.894.866 4.406Zm-6.553 0a4.888 4.888 0 0 0-1.396-3.412 4.724 4.724 0 0 0-3.355-1.419h-2.039a4.711 4.711 0 0 0-3.36 1.415 4.872 4.872 0 0 0-1.392 3.415c0 1.281.501 2.51 1.392 3.416a4.712 4.712 0 0 0 3.36 1.415h2.019a4.729 4.729 0 0 0 3.367-1.413 4.892 4.892 0 0 0 1.404-3.418ZM171.758 27.493h-7.464l-10.69-13.464.02 13.485h-6.573l-.039-23.004h7.463l10.69 13.504-.039-13.504h6.572l.06 22.983ZM15.739 0c-3.113 0-6.156.938-8.744 2.696a15.946 15.946 0 0 0-5.797 7.181 16.247 16.247 0 0 0-.896 9.244 16.084 16.084 0 0 0 4.308 8.193 15.66 15.66 0 0 0 8.058 4.379 15.5 15.5 0 0 0 9.093-.91 15.798 15.798 0 0 0 7.064-5.894A16.19 16.19 0 0 0 31.477 16a16.15 16.15 0 0 0-4.614-11.31C23.913 1.69 19.912.004 15.74 0Zm8.255 16.745c-.1.086-.214.154-.337.2-.14.06-.286.1-.435.122-.342.053-.69.047-1.03-.02a6.639 6.639 0 0 1-2.177-.886 13.105 13.105 0 0 1-1.96-1.51c-.29-.281-.588-.583-.891-.905a13.497 13.497 0 0 1-.832-.986.335.335 0 0 0-.455-.08.363.363 0 0 0-.119.483c.238.382.495.744.753 1.106.257.362.554.705.85 1.047.597.683 1.26 1.304 1.98 1.851a7.978 7.978 0 0 0 2.495 1.288c.306.082.617.142.93.182a.227.227 0 0 1 .21.166.24.24 0 0 1 .008.095.155.155 0 0 1-.04.1 12.325 12.325 0 0 1-1.86 2.436c-2.198 2.234-5.009 3.462-7.563 3.462a6.8 6.8 0 0 1-3.088-.685l-.218-.1a.248.248 0 0 0-.237 0l-.198.14a1.988 1.988 0 0 1-1.09.343 1.116 1.116 0 0 1-.87-.342c-.416-.423-.436-1.228-.02-1.932l.119-.222a.259.259 0 0 0 0-.241l-.119-.222c-1.089-2.093-1.01-4.85.099-7.406a.243.243 0 0 1 .133-.128.235.235 0 0 1 .184.007.178.178 0 0 1 .118.12c.226.557.505 1.09.832 1.59a12.486 12.486 0 0 0 1.722 2.114c.311.323.642.625.99.906.337.281.693.563 1.05.825a.334.334 0 0 0 .474-.06.349.349 0 0 0-.059-.484 19.551 19.551 0 0 1-.93-.885 19.17 19.17 0 0 1-.852-.946 12.988 12.988 0 0 1-1.385-2.073 6.544 6.544 0 0 1-.733-2.254c-.06-.346-.06-.7 0-1.046.037-.138.084-.272.139-.403l.079-.12c.229-.283.473-.552.732-.806 3.227-3.3 7.721-4.387 10.889-2.656l.237.12a.248.248 0 0 0 .238 0l.217-.14c.733-.484 1.564-.504 2.02-.04.455.462.435 1.348-.08 2.112l-.158.202a.264.264 0 0 0-.02.241l.12.242c.81 1.75.85 3.924.138 6.078Z" fill="#86FF2E"/></svg>